<?xml version="1.0" standalone="no"?>
<!DOCTYPE svg PUBLIC "-//W3C//DTD SVG 20010904//EN"
 "http://www.w3.org/TR/2001/REC-SVG-20010904/DTD/svg10.dtd">
<svg version="1.0" xmlns="http://www.w3.org/2000/svg"
 width="2133.000000pt" height="2133.000000pt" viewBox="0 0 2133.000000 2133.000000"
 preserveAspectRatio="xMidYMid meet">

<g transform="translate(0.000000,2133.000000) scale(0.100000,-0.100000)"
fill="#000000" stroke="none">
<path d="M10450 21293 c-2701 -52 -5284 -1140 -7218 -3038 -841 -825 -1502
-1723 -2033 -2760 -936 -1830 -1317 -3865 -1108 -5930 170 -1692 747 -3315
1687 -4745 416 -633 824 -1133 1376 -1686 380 -379 676 -639 1060 -933 1528
-1164 3291 -1882 5186 -2110 707 -86 1489 -98 2210 -35 2054 178 4007 951
5639 2233 1003 787 1890 1792 2548 2886 1186 1971 1694 4256 1463 6570 -169
1686 -749 3316 -1688 4745 -419 638 -826 1136 -1386 1695 -548 547 -1046 953
-1676 1367 -1799 1182 -3893 1784 -6060 1741z m-1923 -5115 c268 -359 704
-942 968 -1294 457 -611 1849 -2472 1870 -2501 8 -11 194 184 855 898 465 502
1187 1282 1605 1734 418 452 967 1045 1220 1318 l460 497 579 0 c548 0 578 -1
565 -17 -14 -18 -487 -529 -1809 -1958 -377 -407 -1079 -1165 -1560 -1685
-481 -520 -985 -1064 -1120 -1210 -135 -146 -249 -271 -254 -278 -5 -8 166
-244 492 -680 274 -367 948 -1268 1497 -2002 549 -734 1419 -1897 1934 -2585
514 -687 1048 -1401 1185 -1585 138 -184 253 -338 254 -342 2 -5 -880 -8
-1961 -8 l-1964 0 -594 794 c-327 437 -1141 1526 -1809 2420 -668 894 -1218
1624 -1222 1623 -4 -1 -152 -159 -331 -352 -497 -537 -3291 -3555 -3746 -4048
l-405 -437 -573 0 c-345 0 -573 4 -573 9 0 5 228 256 508 558 279 301 1405
1518 2501 2703 1097 1185 2018 2180 2048 2211 l55 56 -579 774 c-1863 2491
-3153 4216 -3769 5039 -385 514 -710 950 -722 968 l-23 32 1965 0 1965 0 488
-652z"/>
<path d="M5877 15893 c32 -43 447 -598 923 -1235 814 -1089 1366 -1827 3512
-4696 488 -653 1103 -1475 1367 -1827 263 -352 841 -1125 1285 -1717 l805
-1078 897 0 c716 0 895 3 887 13 -6 6 -259 345 -563 752 -522 700 -916 1227
-1965 2628 -248 331 -1037 1387 -1755 2347 -718 960 -1501 2007 -1740 2326
-239 320 -768 1028 -1175 1572 l-740 991 -898 1 -897 0 57 -77z"/>
</g>
</svg>
